<svg width="64" height="64" viewBox="0 0 64 64" fill="none" xmlns="http://www.w3.org/2000/svg">
<path d="M22 46.723V50H30V36H22V43.277C22.595 43.623 23 44.261 23 45C23 45.738 22.595 46.376 22 46.723Z" fill="white"/>
<path d="M3 32C3 35.41 5.43 38.24 8.66 38.87C7.63 39.94 7 41.4 7 43C7 46.31 9.69 49 13 49C13.07 49 13.14 48.99 13.22 48.99C13.08 49.47 13 49.98 13 50.5C13 53.54 15.46 56 18.5 56C19.03 56 19.54 55.92 20.02 55.78C20.02 55.86 20 55.93 20 56C20 58.76 22.24 61 25 61C27.76 61 30 58.76 30 56V52H20V46.723C19.405 46.377 19 45.739 19 45C19 44.262 19.405 43.624 20 43.277V34H30V29H16V35.277C16.595 35.623 17 36.261 17 37C17 38.105 16.105 39 15 39C13.895 39 13 38.105 13 37C13 36.262 13.405 35.624 14 35.277V27H30V22H15.723C15.377 22.595 14.739 23 14 23C12.895 23 12 22.105 12 21C12 19.895 12.895 19 14 19C14.738 19 15.376 19.405 15.723 20H22V15.723C21.405 15.377 21 14.739 21 14C21 12.895 21.895 12 23 12C24.105 12 25 12.895 25 14C25 14.738 24.595 15.376 24 15.723V20H30V8C30 5.24 27.76 3 25 3C22.24 3 20 5.24 20 8C20 8.07 20.02 8.14 20.02 8.22C19.54 8.08 19.03 8 18.5 8C15.46 8 13 10.46 13 13.5C13 14.02 13.08 14.53 13.22 15.01C13.14 15.01 13.07 15 13 15C9.69 15 7 17.69 7 21C7 22.6 7.63 24.06 8.66 25.13C5.43 25.76 3 28.59 3 32ZM12 43H14V45H12V43ZM6 31H8V33H6V31Z" fill="white"/>
<path d="M55.34 25.13C56.37 24.06 57 22.6 57 21C57 17.69 54.31 15 51 15C50.93 15 50.86 15.01 50.78 15.01C50.92 14.53 51 14.02 51 13.5C51 10.46 48.54 8 45.5 8C44.97 8 44.46 8.08 43.98 8.22C43.98 8.14 44 8.07 44 8C44 5.24 41.76 3 39 3C36.24 3 34 5.24 34 8V20H43V15.723C42.405 15.377 42 14.739 42 14C42 12.895 42.895 12 44 12C45.105 12 46 12.895 46 14C46 14.738 45.595 15.376 45 15.723V22H34V27H48.277C48.623 26.405 49.261 26 50 26C51.105 26 52 26.895 52 28C52 29.105 51.105 30 50 30C49.262 30 48.624 29.595 48.277 29H34V34H51V41.277C51.595 41.623 52 42.261 52 43C52 44.105 51.105 45 50 45C48.895 45 48 44.105 48 43C48 42.262 48.405 41.624 49 41.277V36H41V48.277C41.595 48.623 42 49.261 42 50C42 51.105 41.105 52 40 52C38.895 52 38 51.105 38 50C38 49.262 38.405 48.624 39 48.277V36H34V56C34 58.76 36.24 61 39 61C41.76 61 44 58.76 44 56C44 55.93 43.98 55.86 43.98 55.78C44.46 55.92 44.97 56 45.5 56C48.54 56 51 53.54 51 50.5C51 49.98 50.92 49.47 50.78 48.99C50.86 48.99 50.93 49 51 49C54.31 49 57 46.31 57 43C57 41.4 56.37 39.94 55.34 38.87C58.57 38.24 61 35.41 61 32C61 28.59 58.57 25.76 55.34 25.13ZM49 22H47V20H49V22ZM57 33H55V31H57V33Z" fill="white"/>
</svg>
