<svg width="255" height="255" viewBox="0 0 255 255" fill="none" xmlns="http://www.w3.org/2000/svg">
<g filter="url(#filter0_d_1355_15683)">
<path d="M93.8008 150V122C93.8008 115.373 99.1734 110 105.801 110H144.201C150.828 110 156.201 115.373 156.201 122V150C156.201 156.628 150.828 162 144.201 162H105.801C99.1734 162 93.8008 156.628 93.8008 150Z" stroke="black" stroke-width="6.8" shape-rendering="crispEdges"/>
</g>
<g filter="url(#filter1_d_1355_15683)">
<path d="M125 98V110" stroke="black" stroke-width="6.8" stroke-linecap="round" shape-rendering="crispEdges"/>
</g>
<g filter="url(#filter2_d_1355_15683)">
<path d="M157 126H161C165.418 126 169 129.582 169 134V139.784C169 143.055 167.008 145.997 163.971 147.212L157 150" stroke="black" stroke-width="6.8" shape-rendering="crispEdges"/>
</g>
<g filter="url(#filter3_d_1355_15683)">
<path d="M93 126H89C84.5817 126 81 129.582 81 134V139.784C81 143.055 82.9916 145.997 86.0289 147.212L93 150" stroke="black" stroke-width="6.8" shape-rendering="crispEdges"/>
</g>
<g filter="url(#filter4_d_1355_15683)">
<path fill-rule="evenodd" clip-rule="evenodd" d="M141.002 122.6C142.88 122.6 144.402 124.122 144.402 126V134C144.402 135.877 142.88 137.4 141.002 137.4C139.124 137.4 137.602 135.877 137.602 134V126C137.602 124.122 139.124 122.6 141.002 122.6Z" fill="black"/>
</g>
<g filter="url(#filter5_d_1355_15683)">
<path fill-rule="evenodd" clip-rule="evenodd" d="M109.002 122.6C110.879 122.6 112.402 124.122 112.402 126V134C112.402 135.877 110.879 137.4 109.002 137.4C107.124 137.4 105.602 135.877 105.602 134V126C105.602 124.122 107.124 122.6 109.002 122.6Z" fill="black"/>
</g>
<g filter="url(#filter6_d_1355_15683)">
<path d="M125 98C129.418 98 133 94.4183 133 90C133 85.5817 129.418 82 125 82C120.582 82 117 85.5817 117 90C117 94.4183 120.582 98 125 98Z" fill="black"/>
</g>
<g filter="url(#filter7_d_1355_15683)">
<path d="M117 146H133" stroke="black" stroke-width="6.8" stroke-linecap="round" shape-rendering="crispEdges"/>
</g>
<g filter="url(#filter8_d_1355_15683)">
<path d="M165 126V118" stroke="black" stroke-width="6.8" stroke-linecap="round" shape-rendering="crispEdges"/>
</g>
<g filter="url(#filter9_d_1355_15683)">
<path d="M85 126V118" stroke="black" stroke-width="6.8" stroke-linecap="round" shape-rendering="crispEdges"/>
</g>
<path fill-rule="evenodd" clip-rule="evenodd" d="M253 129C253 117.954 244.046 109 233 109C221.954 109 213 117.954 213 129C213 138.982 220.314 147.257 229.875 148.757V134.781H224.797V129H229.875V124.594C229.875 119.581 232.861 116.812 237.429 116.812C239.618 116.812 241.906 117.203 241.906 117.203V122.125H239.384C236.9 122.125 236.125 123.667 236.125 125.248V129H241.672L240.785 134.781H236.125V148.757C245.686 147.257 253 138.982 253 129Z" fill="black"/>
<path d="M136.502 8H142.636L129.236 23.3154L145 44.1563H132.655L122.987 31.5164L111.925 44.1563H105.788L120.121 27.7747L105 8H117.655L126.393 19.5533L136.499 8H136.502ZM134.35 40.4851H137.748L115.81 11.4784H112.163L134.35 40.4851Z" fill="black"/>
<path d="M5.16797 129C5.16797 121.536 5.16797 117.804 7.48671 115.485C9.80544 113.167 13.5374 113.167 21.0013 113.167C28.4652 113.167 32.1972 113.167 34.5159 115.485C36.8346 117.804 36.8346 121.536 36.8346 129C36.8346 136.464 36.8346 140.196 34.5159 142.515C32.1972 144.833 28.4652 144.833 21.0013 144.833C13.5374 144.833 9.80544 144.833 7.48671 142.515C5.16797 140.196 5.16797 136.464 5.16797 129Z" stroke="black" stroke-width="2.5" stroke-linejoin="round"/>
<path d="M28.502 129C28.502 133.142 25.1441 136.5 21.002 136.5C16.8598 136.5 13.502 133.142 13.502 129C13.502 124.858 16.8598 121.5 21.002 121.5C25.1441 121.5 28.502 124.858 28.502 129Z" stroke="black" stroke-width="2.5"/>
<path d="M30.1816 119.833L30.1667 119.833" stroke="black" stroke-width="3.33333" stroke-linecap="round" stroke-linejoin="round"/>
<path d="M139.525 221.637C139.525 221.637 135.363 218.375 130.438 218L130 218.887C134.45 219.975 136.488 221.537 138.625 223.45C134.95 221.575 131.313 219.812 124.988 219.812C118.663 219.812 115.025 221.575 111.35 223.45C113.488 221.537 115.913 219.8 119.975 218.887L119.538 218C114.375 218.487 110.45 221.637 110.45 221.637C110.45 221.637 105.8 228.388 105 241.638C109.688 247.05 116.813 247.087 116.813 247.087L118.3 245.1C115.775 244.225 112.913 242.65 110.45 239.812C113.388 242.037 117.838 244.362 125 244.362C132.163 244.362 136.6 242.05 139.55 239.812C137.088 242.65 134.225 244.225 131.7 245.1L133.188 247.087C133.188 247.087 140.313 247.05 145 241.638C144.175 228.388 139.525 221.637 139.525 221.637ZM119.063 238C117.3 238 115.875 236.375 115.875 234.362C115.875 232.35 117.3 230.725 119.063 230.725C120.825 230.725 122.25 232.35 122.25 234.362C122.25 236.375 120.825 238 119.063 238ZM130.887 238C129.125 238 127.7 236.375 127.7 234.362C127.7 232.35 129.125 230.725 130.887 230.725C132.65 230.725 134.075 232.35 134.075 234.362C134.075 236.375 132.638 238 130.887 238Z" fill="black"/>
<path fill-rule="evenodd" clip-rule="evenodd" d="M226.066 100.672L225.582 100.799L225.099 100.927C224.929 100.283 224.753 99.6419 224.571 99.0032L225.052 98.8664L225.533 98.7295C225.717 99.3743 225.894 100.022 226.066 100.672ZM224.964 96.8025L224.486 96.9487L224.008 97.0948C223.814 96.4585 223.613 95.8248 223.407 95.1938L223.882 95.0385L224.357 94.8831C224.566 95.5203 224.768 96.1601 224.964 96.8025ZM223.714 92.9771L223.242 93.1416L222.77 93.3061C222.551 92.6789 222.327 92.0546 222.097 91.433L222.566 91.2594L223.035 91.0859C223.267 91.7135 223.493 92.3439 223.714 92.9771ZM222.317 89.2042L221.852 89.3868L221.386 89.5694C221.144 88.9511 220.896 88.3356 220.642 87.7231L221.103 87.5316L221.565 87.34C221.822 87.9585 222.072 88.5799 222.317 89.2042ZM220.777 85.4889L220.319 85.6893L219.861 85.8897C219.594 85.2807 219.322 84.6747 219.044 84.0718L219.498 83.8627L219.953 83.6535C220.233 84.2622 220.508 84.874 220.777 85.4889ZM219.094 81.8362L218.644 82.0541L218.194 82.272C217.904 81.6733 217.609 81.0779 217.308 80.4857L217.754 80.2592L218.2 80.0327C218.503 80.6306 218.802 81.2318 219.094 81.8362ZM217.271 78.2489L216.83 78.4839L216.389 78.7189C216.076 78.1323 215.759 77.5491 215.435 76.9693L215.872 76.7259L216.309 76.4824C216.635 77.0678 216.956 77.6567 217.271 78.2489ZM215.312 74.7345L214.88 74.9863L214.449 75.2381C214.114 74.6644 213.774 74.0942 213.429 73.5276L213.857 73.2676L214.284 73.0076C214.632 73.5796 214.975 74.1553 215.312 74.7345ZM213.22 71.2984L212.798 71.5666L212.376 71.8347C212.02 71.2741 211.659 70.717 211.292 70.1637L211.709 69.8875L212.126 69.6114C212.496 70.17 212.861 70.7324 213.22 71.2984ZM210.999 67.9452L210.587 68.2293L210.176 68.5134C209.798 67.9666 209.416 67.4236 209.028 66.8844L209.434 66.5925L209.84 66.3006C210.231 66.845 210.618 67.3932 210.999 67.9452ZM208.65 64.6794L208.25 64.979L207.85 65.2786C207.452 64.7465 207.048 64.2184 206.64 63.6943L207.035 63.3871L207.429 63.08C207.841 63.6091 208.248 64.1423 208.65 64.6794ZM206.179 61.5048L205.79 61.8194L205.401 62.1341C204.983 61.6178 204.561 61.1056 204.133 60.5976L204.515 60.2756L204.898 59.9536C205.33 60.4665 205.757 60.9836 206.179 61.5048ZM203.588 58.427L203.211 58.7562L202.835 59.0855C202.398 58.5856 201.956 58.09 201.509 57.5986L201.879 57.2623L202.249 56.926C202.7 57.422 203.146 57.9224 203.588 58.427ZM200.882 55.4503L200.518 55.7936L200.155 56.1369C199.699 55.654 199.238 55.1755 198.773 54.7014L199.13 54.3513L199.487 54.0011C199.956 54.4797 200.421 54.9628 200.882 55.4503ZM198.064 52.5788L197.714 52.9357L197.364 53.2926C196.89 52.8274 196.411 52.3668 195.929 51.9107L196.272 51.5472L196.615 51.1837C197.103 51.6441 197.586 52.1092 198.064 52.5788ZM195.14 49.8164L194.803 50.1863L194.467 50.5563C193.976 50.1097 193.48 49.6676 192.98 49.2303L193.309 48.854L193.639 48.4777C194.143 48.9192 194.644 49.3654 195.14 49.8164ZM192.112 47.1676L191.79 47.5501L191.468 47.9326C190.96 47.505 190.448 47.0821 189.931 46.6641L190.246 46.2755L190.561 45.8869C191.082 46.3089 191.599 46.7359 192.112 47.1676ZM188.986 44.6362L188.678 45.0307L188.371 45.4252C187.847 45.0171 187.319 44.6139 186.787 44.2157L187.087 43.8154L187.386 43.4151C187.923 43.8171 188.456 44.2242 188.986 44.6362ZM185.765 42.2257L185.473 42.6317L185.181 43.0376C184.642 42.6499 184.099 42.2673 183.552 41.8897L183.836 41.4783L184.12 41.0668C184.672 41.448 185.221 41.8343 185.765 42.2257ZM182.454 39.9398L182.178 40.3566L181.902 40.7734C181.348 40.4068 180.791 40.0453 180.231 39.6891L180.499 39.2671L180.767 38.8451C181.333 39.2047 181.895 39.5697 182.454 39.9398ZM179.058 37.7819L178.798 38.209L178.538 38.6361C177.971 38.2911 177.401 37.9514 176.827 37.617L177.079 37.185L177.331 36.7531C177.91 37.0907 178.486 37.4336 179.058 37.7819ZM175.583 35.7566L175.34 36.1933L175.096 36.6301C174.516 36.3069 173.933 35.989 173.347 35.6767L173.582 35.2353L173.817 34.794C174.409 35.1094 174.998 35.4303 175.583 35.7566ZM172.033 33.866L171.806 34.3117L171.58 34.7575C170.988 34.4566 170.392 34.1612 169.794 33.8713L170.011 33.4213L170.229 32.9713C170.834 33.2639 171.435 33.5622 172.033 33.866ZM168.412 32.1129L168.203 32.5671L167.994 33.0212C167.391 32.7435 166.785 32.4714 166.176 32.205L166.376 31.7469L166.577 31.2888C167.191 31.5578 167.803 31.8326 168.412 32.1129ZM164.725 30.5002L164.534 30.9621L164.342 31.4239C163.73 31.1699 163.114 30.9216 162.496 30.6791L162.679 30.2136L162.861 29.7481C163.486 29.993 164.107 30.2438 164.725 30.5002ZM160.98 29.0309L160.806 29.4998L160.632 29.9687C160.011 29.7386 159.387 29.5143 158.759 29.2959L158.924 28.8237L159.088 28.3515C159.722 28.5721 160.352 28.7986 160.98 29.0309ZM157.182 27.7081L157.027 28.1834L156.872 28.6586C156.241 28.4524 155.607 28.252 154.971 28.0575L155.117 27.5794L155.263 27.1012C155.905 27.2975 156.545 27.4998 157.182 27.7081ZM153.336 26.5326L153.199 27.0135L153.062 27.4944C152.424 27.3126 151.782 27.1367 151.139 26.9669L151.266 26.4835L151.394 26C152.044 26.1715 152.691 26.349 153.336 26.5326ZM97.6716 26L97.7992 26.4835L97.9267 26.9669C97.2831 27.1367 96.6419 27.3126 96.0032 27.4944L95.8664 27.0135L95.7295 26.5326C96.3743 26.349 97.0217 26.1715 97.6716 26ZM93.8025 27.1012L93.9486 27.5794L94.0948 28.0575C93.4585 28.252 92.8248 28.4524 92.1938 28.6586L92.0385 28.1834L91.8831 27.7081C92.5203 27.4999 93.1601 27.2975 93.8025 27.1012ZM89.9771 28.3516L90.1416 28.8237L90.306 29.2959C89.6789 29.5144 89.0546 29.7387 88.433 29.9687L88.2594 29.4998L88.0859 29.0309C88.7135 28.7986 89.3439 28.5721 89.9771 28.3516ZM86.2042 29.7482L86.3868 30.2136L86.5694 30.6791C85.9511 30.9217 85.3356 31.17 84.7231 31.424L84.5316 30.9621L84.34 30.5002C84.9585 30.2438 85.5799 29.9931 86.2042 29.7482ZM82.4889 31.2889L82.6893 31.7469L82.8897 32.205C82.2807 32.4714 81.6747 32.7435 81.0718 33.0212L80.8627 32.5671L80.6535 32.113C81.2622 31.8326 81.874 31.5579 82.4889 31.2889ZM78.8362 32.9713L79.0541 33.4213L79.272 33.8714C78.6733 34.1612 78.0779 34.4566 77.4857 34.7575L77.2592 34.3118L77.0327 33.866C77.6306 33.5622 78.2318 33.2639 78.8362 32.9713ZM75.2489 34.7941L75.4839 35.2354L75.7189 35.6767C75.1323 35.9891 74.5491 36.3069 73.9693 36.6301L73.7259 36.1934L73.4824 35.7566C74.0678 35.4303 74.6567 35.1094 75.2489 34.7941ZM71.7345 36.7531L71.9863 37.1851L72.2381 37.617C71.6644 37.9514 71.0942 38.2911 70.5276 38.6361L70.2676 38.209L70.0076 37.782C70.5796 37.4337 71.1553 37.0907 71.7345 36.7531ZM68.2984 38.8451L68.5666 39.2671L68.8347 39.6891C68.2741 40.0454 67.717 40.4068 67.1637 40.7735L66.8876 40.3566L66.6114 39.9398C67.17 39.5697 67.7324 39.2048 68.2984 38.8451ZM64.9452 41.0669L65.2293 41.4783L65.5134 41.8898C64.9666 42.2673 64.4236 42.65 63.8844 43.0376L63.5925 42.6317L63.3006 42.2257C63.845 41.8344 64.3932 41.448 64.9452 41.0669ZM61.6794 43.4151L61.979 43.8154L62.2786 44.2157C61.7465 44.6139 61.2184 45.0171 60.6943 45.4252L60.3871 45.0307L60.08 44.6362C60.6091 44.2242 61.1423 43.8171 61.6794 43.4151ZM58.5048 45.887L58.8194 46.2755L59.1341 46.6641C58.6178 47.0821 58.1056 47.505 57.5976 47.9326L57.2756 47.5501L56.9536 47.1676C57.4665 46.7359 57.9836 46.309 58.5048 45.887ZM55.427 48.4777L55.7562 48.8541L56.0855 49.2304C55.5856 49.6677 55.09 50.1097 54.5986 50.5564L54.2623 50.1864L53.926 49.8164C54.422 49.3655 54.9224 48.9192 55.427 48.4777ZM52.4503 51.1837L52.7936 51.5472L53.1369 51.9107C52.654 52.3668 52.1755 52.8275 51.7014 53.2926L51.3513 52.9357L51.0011 52.5788C51.4797 52.1092 51.9628 51.6442 52.4503 51.1837ZM49.5788 54.0011L49.9357 54.3513L50.2926 54.7015C49.8274 55.1756 49.3668 55.6541 48.9107 56.137L48.5472 55.7937L48.1837 55.4503C48.6441 54.9628 49.1092 54.4797 49.5788 54.0011ZM46.8164 56.926L47.1863 57.2623L47.5563 57.5987C47.1097 58.09 46.6676 58.5856 46.2303 59.0855L45.854 58.7563L45.4777 58.427C45.9192 57.9224 46.3654 57.422 46.8164 56.926ZM44.1676 59.9537L44.5501 60.2757L44.9326 60.5977C44.505 61.1057 44.0821 61.6178 43.6641 62.1341L43.2755 61.8195L42.8869 61.5048C43.3089 60.9836 43.7359 60.4666 44.1676 59.9537ZM41.6362 63.08C41.2242 63.6091 40.8171 64.1423 40.4151 64.6794L40.8154 64.979L41.2157 65.2786C41.6139 64.7466 42.0171 64.2185 42.4252 63.6943L42.0307 63.3872L41.6362 63.08ZM39.2257 66.3007L39.6317 66.5926L40.0376 66.8845C39.6499 67.4236 39.2673 67.9666 38.8897 68.5134L38.4783 68.2294L38.0668 67.9453C38.448 67.3932 38.8343 66.845 39.2257 66.3007ZM36.9398 69.6114L37.3566 69.8876L37.7734 70.1638C37.4068 70.7171 37.0453 71.2741 36.6891 71.8348L36.2671 71.5666L35.8451 71.2985C36.2047 70.7324 36.5697 70.1701 36.9398 69.6114ZM34.7819 73.0076L35.209 73.2676L35.6361 73.5276C35.2911 74.0943 34.9514 74.6645 34.617 75.2381L34.185 74.9863L33.7531 74.7346C34.0907 74.1554 34.4336 73.5797 34.7819 73.0076ZM32.7566 76.4825L33.1933 76.7259L33.6301 76.9694C33.3069 77.5492 32.989 78.1324 32.6767 78.719L32.2353 78.4839L31.794 78.2489C32.1094 77.6567 32.4303 77.0679 32.7566 76.4825ZM30.866 80.0327L31.3117 80.2592L31.7575 80.4857C31.4566 81.0779 31.1612 81.6734 30.8713 82.272L30.4213 82.0542L29.9713 81.8363C30.2639 81.2318 30.5622 80.6306 30.866 80.0327ZM29.1129 83.6535L29.5671 83.8627L30.0212 84.0719C29.7435 84.6748 29.4714 85.2808 29.205 85.8898L28.7469 85.6894L28.2888 85.489C28.5578 84.8741 28.8326 84.2622 29.1129 83.6535ZM27.5002 87.3401L27.9621 87.5316L28.4239 87.7232C28.1699 88.3357 27.9216 88.9511 27.6791 89.5694L27.2136 89.3869L26.7481 89.2043C26.993 88.5799 27.2438 87.9585 27.5002 87.3401ZM26.0309 91.0859L26.4998 91.2595L26.9687 91.4331C26.7386 92.0546 26.5143 92.679 26.2959 93.3061L25.8237 93.1416L25.3515 92.9771C25.5721 92.3439 25.7986 91.7135 26.0309 91.0859ZM24.7081 94.8832L25.1834 95.0385L25.6586 95.1939C25.4524 95.8249 25.252 96.4586 25.0575 97.0948L24.5794 96.9487L24.1012 96.8026C24.2975 96.1601 24.4998 95.5203 24.7081 94.8832ZM23.5326 98.7295L24.0135 98.8664L24.4944 99.0033C24.3126 99.6419 24.1367 100.283 23.9669 100.927L23.4835 100.799L23 100.672C23.1715 100.022 23.349 99.3744 23.5326 98.7295ZM23 154.394L23.4835 154.266L23.9669 154.139C24.1367 154.782 24.3126 155.424 24.4944 156.062L24.0135 156.199L23.5326 156.336C23.349 155.691 23.1715 155.044 23 154.394ZM24.1012 158.263L24.5794 158.117L25.0575 157.971C25.252 158.607 25.4524 159.241 25.6586 159.872L25.1834 160.027L24.7081 160.182C24.4999 159.545 24.2975 158.905 24.1012 158.263ZM25.3516 162.088L25.8237 161.924L26.2959 161.759C26.5144 162.387 26.7387 163.011 26.9687 163.633L26.4998 163.806L26.0309 163.98C25.7986 163.352 25.5721 162.722 25.3516 162.088ZM26.7482 165.861L27.2136 165.679L27.6791 165.496C27.9217 166.114 28.17 166.73 28.424 167.342L27.9621 167.534L27.5002 167.725C27.2438 167.107 26.9931 166.486 26.7482 165.861ZM28.2888 169.577L28.7469 169.376L29.205 169.176C29.4714 169.785 29.7435 170.391 30.0212 170.994L29.5671 171.203L29.113 171.412C28.8326 170.803 28.5579 170.192 28.2888 169.577ZM29.9713 173.229L30.4213 173.011L30.8714 172.794C31.1612 173.392 31.4566 173.988 31.7575 174.58L31.3118 174.806L30.866 175.033C30.5622 174.435 30.2639 173.834 29.9713 173.229ZM31.7941 176.817L32.2354 176.582L32.6767 176.347C32.9891 176.933 33.3069 177.516 33.6301 178.096L33.1934 178.34L32.7566 178.583C32.4303 177.998 32.1094 177.409 31.7941 176.817ZM33.7531 180.331L34.1851 180.079L34.617 179.827C34.9514 180.401 35.2911 180.971 35.6361 181.538L35.209 181.798L34.782 182.058C34.4337 181.486 34.0907 180.91 33.7531 180.331ZM35.8451 183.767L36.2671 183.499L36.6891 183.231C37.0454 183.791 37.4068 184.349 37.7735 184.902L37.3566 185.178L36.9398 185.454C36.5697 184.896 36.2048 184.333 35.8451 183.767ZM38.0669 187.12L38.4783 186.836L38.8898 186.552C39.2673 187.099 39.65 187.642 40.0376 188.181L39.6317 188.473L39.2257 188.765C38.8344 188.221 38.448 187.672 38.0669 187.12ZM40.4151 190.386C40.8172 190.923 41.2242 191.456 41.6362 191.986L42.0307 191.678L42.4252 191.371C42.0171 190.847 41.6139 190.319 41.2157 189.787L40.8154 190.087L40.4151 190.386ZM42.887 193.561L43.2755 193.246L43.6641 192.931C44.0821 193.448 44.505 193.96 44.9326 194.468L44.5501 194.79L44.1676 195.112C43.7359 194.599 43.309 194.082 42.887 193.561ZM45.4777 196.639L45.8541 196.309L46.2304 195.98C46.6677 196.48 47.1097 196.976 47.5564 197.467L47.1864 197.803L46.8164 198.14C46.3655 197.644 45.9192 197.143 45.4777 196.639ZM48.1837 199.615L48.5472 199.272L48.9107 198.929C49.3668 199.411 49.8275 199.89 50.2926 200.364L49.9357 200.714L49.5788 201.064C49.1092 200.586 48.6442 200.103 48.1837 199.615ZM51.0011 202.487L51.3513 202.13L51.7015 201.773C52.1756 202.238 52.6541 202.699 53.137 203.155L52.7937 203.518L52.4503 203.882C51.9628 203.421 51.4797 202.956 51.0011 202.487ZM53.926 205.249L54.2623 204.879L54.5987 204.509C55.09 204.956 55.5856 205.398 56.0855 205.835L55.7563 206.212L55.427 206.588C54.9224 206.146 54.422 205.7 53.926 205.249ZM56.9537 207.898L57.2757 207.515L57.5977 207.133C58.1057 207.561 58.6179 207.983 59.1341 208.401L58.8195 208.79L58.5048 209.179C57.9836 208.757 57.4666 208.33 56.9537 207.898ZM60.08 210.429C60.6091 210.841 61.1423 211.248 61.6795 211.65L61.979 211.25L62.2786 210.85C61.7466 210.452 61.2185 210.048 60.6943 209.64L60.3872 210.035L60.08 210.429ZM63.3007 212.84L63.5926 212.434L63.8845 212.028C64.4236 212.416 64.9666 212.798 65.5135 213.176L65.2294 213.587L64.9453 213.999C64.3932 213.618 63.845 213.231 63.3007 212.84ZM66.6114 215.126L66.8876 214.709L67.1638 214.292C67.7171 214.659 68.2741 215.02 68.8348 215.376L68.5666 215.798L68.2985 216.22C67.7324 215.861 67.1701 215.496 66.6114 215.126ZM70.0076 217.284L70.2676 216.857L70.5276 216.429C71.0943 216.774 71.6645 217.114 72.2381 217.449L71.9864 217.88L71.7346 218.312C71.1554 217.975 70.5797 217.632 70.0076 217.284ZM73.4825 219.309L73.7259 218.872L73.9694 218.435C74.5492 218.759 75.1324 219.076 75.719 219.389L75.4839 219.83L75.2489 220.272C74.6567 219.956 74.0679 219.635 73.4825 219.309ZM77.0327 221.2L77.2592 220.754L77.4857 220.308C78.0779 220.609 78.6734 220.904 79.272 221.194L79.0542 221.644L78.8363 222.094C78.2318 221.802 77.6306 221.503 77.0327 221.2ZM80.6535 222.953L80.8627 222.498L81.0719 222.044C81.6748 222.322 82.2808 222.594 82.8898 222.861L82.6894 223.319L82.489 223.777C81.8741 223.508 81.2622 223.233 80.6535 222.953ZM84.3401 224.565L84.5316 224.103L84.7232 223.642C85.3357 223.896 85.9511 224.144 86.5694 224.386L86.3869 224.852L86.2043 225.317C85.5799 225.072 84.9585 224.822 84.3401 224.565ZM88.0859 226.035L88.2595 225.566L88.4331 225.097C89.0546 225.327 89.679 225.551 90.3061 225.77L90.1416 226.242L89.9771 226.714C89.3439 226.493 88.7135 226.267 88.0859 226.035ZM91.8832 227.357L92.0385 226.882L92.1938 226.407C92.8249 226.613 93.4585 226.814 94.0948 227.008L93.9487 227.486L93.8026 227.964C93.1601 227.768 92.5203 227.566 91.8832 227.357ZM95.7295 228.533L95.8664 228.052L96.0033 227.571C96.6419 227.753 97.2831 227.929 97.9268 228.099L97.7992 228.582L97.6716 229.066C97.0218 228.894 96.3744 228.717 95.7295 228.533ZM151.394 229.066L151.266 228.582L151.139 228.099C151.782 227.929 152.424 227.753 153.062 227.571L153.199 228.052L153.336 228.533C152.691 228.717 152.044 228.894 151.394 229.066ZM155.263 227.964L155.117 227.486L154.971 227.008C155.607 226.814 156.241 226.613 156.872 226.407L157.027 226.882L157.182 227.357C156.545 227.566 155.905 227.768 155.263 227.964ZM159.088 226.714C159.722 226.493 160.352 226.267 160.98 226.035L160.806 225.566L160.633 225.097C160.011 225.327 159.387 225.551 158.76 225.77L158.924 226.242L159.088 226.714ZM162.861 225.317L162.679 224.852L162.496 224.386C163.115 224.144 163.73 223.896 164.342 223.642L164.534 224.103L164.726 224.565C164.107 224.822 163.486 225.072 162.861 225.317ZM166.577 223.777L166.376 223.319L166.176 222.861C166.785 222.594 167.391 222.322 167.994 222.044L168.203 222.498L168.412 222.953C167.803 223.233 167.192 223.508 166.577 223.777ZM170.229 222.094L170.011 221.644L169.794 221.194C170.392 220.904 170.988 220.609 171.58 220.308L171.806 220.754L172.033 221.2C171.435 221.503 170.834 221.802 170.229 222.094ZM173.817 220.271L173.582 219.83L173.347 219.389C173.933 219.076 174.516 218.759 175.096 218.435L175.34 218.872L175.583 219.309C174.998 219.635 174.409 219.956 173.817 220.271ZM177.331 218.312C177.91 217.975 178.486 217.632 179.058 217.284L178.798 216.857L178.538 216.429C177.971 216.774 177.401 217.114 176.827 217.448L177.079 217.88L177.331 218.312ZM180.767 216.22L180.499 215.798L180.231 215.376C180.791 215.02 181.349 214.659 181.902 214.292L182.178 214.709L182.454 215.126C181.896 215.496 181.333 215.861 180.767 216.22ZM184.12 213.999L183.836 213.587L183.552 213.176C184.099 212.798 184.642 212.416 185.181 212.028L185.473 212.434L185.765 212.84C185.221 213.231 184.672 213.617 184.12 213.999ZM187.386 211.65L187.087 211.25L186.787 210.85C187.319 210.452 187.847 210.048 188.371 209.64L188.678 210.035L188.986 210.429C188.456 210.841 187.923 211.248 187.386 211.65ZM190.561 209.179L190.246 208.79L189.931 208.401C190.448 207.983 190.96 207.561 191.468 207.133L191.79 207.515L192.112 207.898C191.599 208.33 191.082 208.757 190.561 209.179ZM193.639 206.588L193.309 206.211L192.98 205.835C193.48 205.398 193.976 204.956 194.467 204.509L194.803 204.879L195.14 205.249C194.644 205.7 194.143 206.146 193.639 206.588ZM196.615 203.882L196.272 203.518L195.929 203.155C196.411 202.699 196.89 202.238 197.364 201.773L197.714 202.13L198.064 202.487C197.586 202.956 197.103 203.421 196.615 203.882ZM199.487 201.064L199.13 200.714L198.773 200.364C199.238 199.89 199.699 199.411 200.155 198.929L200.518 199.272L200.882 199.615C200.421 200.103 199.956 200.586 199.487 201.064ZM202.249 198.14L201.879 197.803L201.509 197.467C201.956 196.976 202.398 196.48 202.835 195.98L203.212 196.309L203.588 196.638C203.146 197.143 202.7 197.643 202.249 198.14ZM204.898 195.112L204.515 194.79L204.133 194.468C204.561 193.96 204.983 193.448 205.401 192.931L205.79 193.246L206.179 193.561C205.757 194.082 205.33 194.599 204.898 195.112ZM207.429 191.986L207.035 191.678L206.64 191.371C207.048 190.847 207.452 190.319 207.85 189.787L208.25 190.086L208.65 190.386C208.248 190.923 207.841 191.456 207.429 191.986ZM209.84 188.765L209.434 188.473L209.028 188.181C209.416 187.642 209.798 187.099 210.176 186.552L210.587 186.836L210.999 187.12C210.618 187.672 210.231 188.221 209.84 188.765ZM212.126 185.454C212.496 184.895 212.861 184.333 213.22 183.767L212.798 183.499L212.376 183.231C212.02 183.791 211.659 184.348 211.292 184.902L211.709 185.178L212.126 185.454ZM214.284 182.058L213.857 181.798L213.429 181.538C213.774 180.971 214.114 180.401 214.449 179.827L214.881 180.079L215.312 180.331C214.975 180.91 214.632 181.486 214.284 182.058ZM216.309 178.583L215.872 178.34L215.435 178.096C215.759 177.516 216.077 176.933 216.389 176.347L216.83 176.582L217.272 176.817C216.956 177.409 216.635 177.998 216.309 178.583ZM218.2 175.033C218.503 174.435 218.802 173.834 219.094 173.229L218.644 173.011L218.194 172.793C217.904 173.392 217.609 173.988 217.308 174.58L217.754 174.806L218.2 175.033ZM219.953 171.412L219.498 171.203L219.044 170.994C219.322 170.391 219.594 169.785 219.861 169.176L220.319 169.376L220.777 169.577C220.508 170.191 220.233 170.803 219.953 171.412ZM221.565 167.725L221.103 167.534L220.642 167.342C220.896 166.73 221.144 166.114 221.386 165.496L221.852 165.679L222.317 165.861C222.073 166.486 221.822 167.107 221.565 167.725ZM223.035 163.98L222.566 163.806L222.097 163.632C222.327 163.011 222.551 162.387 222.77 161.759L223.242 161.924L223.714 162.088C223.493 162.722 223.267 163.352 223.035 163.98ZM224.357 160.182L223.882 160.027L223.407 159.872C223.613 159.241 223.814 158.607 224.008 157.971L224.486 158.117L224.964 158.263C224.768 158.905 224.566 159.545 224.357 160.182ZM225.533 156.336L225.052 156.199L224.571 156.062C224.753 155.424 224.929 154.782 225.099 154.139L225.582 154.266L226.066 154.394C225.894 155.044 225.717 155.691 225.533 156.336Z" fill="url(#paint0_linear_1355_15683)"/>
<defs>
<filter id="filter0_d_1355_15683" x="45.9559" y="88.8222" width="158.09" height="147.689" filterUnits="userSpaceOnUse" color-interpolation-filters="sRGB">
<feFlood flood-opacity="0" result="BackgroundImageFix"/>
<feColorMatrix in="SourceAlpha" type="matrix" values="0 0 0 0 0 0 0 0 0 0 0 0 0 0 0 0 0 0 127 0" result="hardAlpha"/>
<feOffset dy="26.6667"/>
<feGaussianBlur stdDeviation="22.2222"/>
<feComposite in2="hardAlpha" operator="out"/>
<feColorMatrix type="matrix" values="0 0 0 0 0.454902 0 0 0 0 0.666667 0 0 0 0 0.611765 0 0 0 0.25 0"/>
<feBlend mode="normal" in2="BackgroundImageFix" result="effect1_dropShadow_1355_15683"/>
<feBlend mode="normal" in="SourceGraphic" in2="effect1_dropShadow_1355_15683" result="shape"/>
</filter>
<filter id="filter1_d_1355_15683" x="77.1552" y="76.8222" width="95.6897" height="107.689" filterUnits="userSpaceOnUse" color-interpolation-filters="sRGB">
<feFlood flood-opacity="0" result="BackgroundImageFix"/>
<feColorMatrix in="SourceAlpha" type="matrix" values="0 0 0 0 0 0 0 0 0 0 0 0 0 0 0 0 0 0 127 0" result="hardAlpha"/>
<feOffset dy="26.6667"/>
<feGaussianBlur stdDeviation="22.2222"/>
<feComposite in2="hardAlpha" operator="out"/>
<feColorMatrix type="matrix" values="0 0 0 0 0.454902 0 0 0 0 0.666667 0 0 0 0 0.611765 0 0 0 0.25 0"/>
<feBlend mode="normal" in2="BackgroundImageFix" result="effect1_dropShadow_1355_15683"/>
<feBlend mode="normal" in="SourceGraphic" in2="effect1_dropShadow_1355_15683" result="shape"/>
</filter>
<filter id="filter2_d_1355_15683" x="111.292" y="104.822" width="105.553" height="119.446" filterUnits="userSpaceOnUse" color-interpolation-filters="sRGB">
<feFlood flood-opacity="0" result="BackgroundImageFix"/>
<feColorMatrix in="SourceAlpha" type="matrix" values="0 0 0 0 0 0 0 0 0 0 0 0 0 0 0 0 0 0 127 0" result="hardAlpha"/>
<feOffset dy="26.6667"/>
<feGaussianBlur stdDeviation="22.2222"/>
<feComposite in2="hardAlpha" operator="out"/>
<feColorMatrix type="matrix" values="0 0 0 0 0.454902 0 0 0 0 0.666667 0 0 0 0 0.611765 0 0 0 0.25 0"/>
<feBlend mode="normal" in2="BackgroundImageFix" result="effect1_dropShadow_1355_15683"/>
<feBlend mode="normal" in="SourceGraphic" in2="effect1_dropShadow_1355_15683" result="shape"/>
</filter>
<filter id="filter3_d_1355_15683" x="33.1552" y="104.822" width="105.553" height="119.446" filterUnits="userSpaceOnUse" color-interpolation-filters="sRGB">
<feFlood flood-opacity="0" result="BackgroundImageFix"/>
<feColorMatrix in="SourceAlpha" type="matrix" values="0 0 0 0 0 0 0 0 0 0 0 0 0 0 0 0 0 0 127 0" result="hardAlpha"/>
<feOffset dy="26.6667"/>
<feGaussianBlur stdDeviation="22.2222"/>
<feComposite in2="hardAlpha" operator="out"/>
<feColorMatrix type="matrix" values="0 0 0 0 0.454902 0 0 0 0 0.666667 0 0 0 0 0.611765 0 0 0 0.25 0"/>
<feBlend mode="normal" in2="BackgroundImageFix" result="effect1_dropShadow_1355_15683"/>
<feBlend mode="normal" in="SourceGraphic" in2="effect1_dropShadow_1355_15683" result="shape"/>
</filter>
<filter id="filter4_d_1355_15683" x="93.1571" y="104.822" width="95.6897" height="103.689" filterUnits="userSpaceOnUse" color-interpolation-filters="sRGB">
<feFlood flood-opacity="0" result="BackgroundImageFix"/>
<feColorMatrix in="SourceAlpha" type="matrix" values="0 0 0 0 0 0 0 0 0 0 0 0 0 0 0 0 0 0 127 0" result="hardAlpha"/>
<feOffset dy="26.6667"/>
<feGaussianBlur stdDeviation="22.2222"/>
<feComposite in2="hardAlpha" operator="out"/>
<feColorMatrix type="matrix" values="0 0 0 0 0.454902 0 0 0 0 0.666667 0 0 0 0 0.611765 0 0 0 0.25 0"/>
<feBlend mode="normal" in2="BackgroundImageFix" result="effect1_dropShadow_1355_15683"/>
<feBlend mode="normal" in="SourceGraphic" in2="effect1_dropShadow_1355_15683" result="shape"/>
</filter>
<filter id="filter5_d_1355_15683" x="61.1571" y="104.822" width="95.6897" height="103.689" filterUnits="userSpaceOnUse" color-interpolation-filters="sRGB">
<feFlood flood-opacity="0" result="BackgroundImageFix"/>
<feColorMatrix in="SourceAlpha" type="matrix" values="0 0 0 0 0 0 0 0 0 0 0 0 0 0 0 0 0 0 127 0" result="hardAlpha"/>
<feOffset dy="26.6667"/>
<feGaussianBlur stdDeviation="22.2222"/>
<feComposite in2="hardAlpha" operator="out"/>
<feColorMatrix type="matrix" values="0 0 0 0 0.454902 0 0 0 0 0.666667 0 0 0 0 0.611765 0 0 0 0.25 0"/>
<feBlend mode="normal" in2="BackgroundImageFix" result="effect1_dropShadow_1355_15683"/>
<feBlend mode="normal" in="SourceGraphic" in2="effect1_dropShadow_1355_15683" result="shape"/>
</filter>
<filter id="filter6_d_1355_15683" x="72.5556" y="64.2222" width="104.889" height="104.889" filterUnits="userSpaceOnUse" color-interpolation-filters="sRGB">
<feFlood flood-opacity="0" result="BackgroundImageFix"/>
<feColorMatrix in="SourceAlpha" type="matrix" values="0 0 0 0 0 0 0 0 0 0 0 0 0 0 0 0 0 0 127 0" result="hardAlpha"/>
<feOffset dy="26.6667"/>
<feGaussianBlur stdDeviation="22.2222"/>
<feComposite in2="hardAlpha" operator="out"/>
<feColorMatrix type="matrix" values="0 0 0 0 0.454902 0 0 0 0 0.666667 0 0 0 0 0.611765 0 0 0 0.25 0"/>
<feBlend mode="normal" in2="BackgroundImageFix" result="effect1_dropShadow_1355_15683"/>
<feBlend mode="normal" in="SourceGraphic" in2="effect1_dropShadow_1355_15683" result="shape"/>
</filter>
<filter id="filter7_d_1355_15683" x="69.1552" y="124.822" width="111.69" height="95.6889" filterUnits="userSpaceOnUse" color-interpolation-filters="sRGB">
<feFlood flood-opacity="0" result="BackgroundImageFix"/>
<feColorMatrix in="SourceAlpha" type="matrix" values="0 0 0 0 0 0 0 0 0 0 0 0 0 0 0 0 0 0 127 0" result="hardAlpha"/>
<feOffset dy="26.6667"/>
<feGaussianBlur stdDeviation="22.2222"/>
<feComposite in2="hardAlpha" operator="out"/>
<feColorMatrix type="matrix" values="0 0 0 0 0.454902 0 0 0 0 0.666667 0 0 0 0 0.611765 0 0 0 0.25 0"/>
<feBlend mode="normal" in2="BackgroundImageFix" result="effect1_dropShadow_1355_15683"/>
<feBlend mode="normal" in="SourceGraphic" in2="effect1_dropShadow_1355_15683" result="shape"/>
</filter>
<filter id="filter8_d_1355_15683" x="117.155" y="96.8222" width="95.6897" height="103.689" filterUnits="userSpaceOnUse" color-interpolation-filters="sRGB">
<feFlood flood-opacity="0" result="BackgroundImageFix"/>
<feColorMatrix in="SourceAlpha" type="matrix" values="0 0 0 0 0 0 0 0 0 0 0 0 0 0 0 0 0 0 127 0" result="hardAlpha"/>
<feOffset dy="26.6667"/>
<feGaussianBlur stdDeviation="22.2222"/>
<feComposite in2="hardAlpha" operator="out"/>
<feColorMatrix type="matrix" values="0 0 0 0 0.454902 0 0 0 0 0.666667 0 0 0 0 0.611765 0 0 0 0.25 0"/>
<feBlend mode="normal" in2="BackgroundImageFix" result="effect1_dropShadow_1355_15683"/>
<feBlend mode="normal" in="SourceGraphic" in2="effect1_dropShadow_1355_15683" result="shape"/>
</filter>
<filter id="filter9_d_1355_15683" x="37.1552" y="96.8222" width="95.6897" height="103.689" filterUnits="userSpaceOnUse" color-interpolation-filters="sRGB">
<feFlood flood-opacity="0" result="BackgroundImageFix"/>
<feColorMatrix in="SourceAlpha" type="matrix" values="0 0 0 0 0 0 0 0 0 0 0 0 0 0 0 0 0 0 127 0" result="hardAlpha"/>
<feOffset dy="26.6667"/>
<feGaussianBlur stdDeviation="22.2222"/>
<feComposite in2="hardAlpha" operator="out"/>
<feColorMatrix type="matrix" values="0 0 0 0 0.454902 0 0 0 0 0.666667 0 0 0 0 0.611765 0 0 0 0.25 0"/>
<feBlend mode="normal" in2="BackgroundImageFix" result="effect1_dropShadow_1355_15683"/>
<feBlend mode="normal" in="SourceGraphic" in2="effect1_dropShadow_1355_15683" result="shape"/>
</filter>
<linearGradient id="paint0_linear_1355_15683" x1="124.533" y1="26" x2="124.533" y2="229.066" gradientUnits="userSpaceOnUse">
<stop stop-color="#0C74F1"/>
<stop offset="0.9999" stop-color="#28EDDB"/>
<stop offset="1" stop-opacity="0"/>
</linearGradient>
</defs>
</svg>
