<svg width="255" height="255" viewBox="0 0 255 255" fill="none" xmlns="http://www.w3.org/2000/svg">
<g filter="url(#filter0_d_1355_15683)">
<path d="M93.8008 150V122C93.8008 115.373 99.1734 110 105.801 110H144.201C150.828 110 156.201 115.373 156.201 122V150C156.201 156.628 150.828 162 144.201 162H105.801C99.1734 162 93.8008 156.628 93.8008 150Z" stroke="black" stroke-width="6.8" shape-rendering="crispEdges"/>
</g>
<g filter="url(#filter1_d_1355_15683)">
<path d="M125 98V110" stroke="black" stroke-width="6.8" stroke-linecap="round" shape-rendering="crispEdges"/>
</g>
<g filter="url(#filter2_d_1355_15683)">
<path d="M157 126H161C165.418 126 169 129.582 169 134V139.784C169 143.055 167.008 145.997 163.971 147.212L157 150" stroke="black" stroke-width="6.8" shape-rendering="crispEdges"/>
</g>
<g filter="url(#filter3_d_1355_15683)">
<path d="M93 126H89C84.5817 126 81 129.582 81 134V139.784C81 143.055 82.9916 145.997 86.0289 147.212L93 150" stroke="black" stroke-width="6.8" shape-rendering="crispEdges"/>
</g>
<g filter="url(#filter4_d_1355_15683)">
<path fill-rule="evenodd" clip-rule="evenodd" d="M141.002 122.6C142.88 122.6 144.402 124.122 144.402 126V134C144.402 135.877 142.88 137.4 141.002 137.4C139.124 137.4 137.602 135.877 137.602 134V126C137.602 124.122 139.124 122.6 141.002 122.6Z" fill="black"/>
</g>
<g filter="url(#filter5_d_1355_15683)">
<path fill-rule="evenodd" clip-rule="evenodd" d="M109.002 122.6C110.879 122.6 112.402 124.122 112.402 126V134C112.402 135.877 110.879 137.4 109.002 137.4C107.124 137.4 105.602 135.877 105.602 134V126C105.602 124.122 107.124 122.6 109.002 122.6Z" fill="black"/>
</g>
<g filter="url(#filter6_d_1355_15683)">
<path d="M125 98C129.418 98 133 94.4183 133 90C133 85.5817 129.418 82 125 82C120.582 82 117 85.5817 117 90C117 94.4183 120.582 98 125 98Z" fill="black"/>
</g>
<g filter="url(#filter7_d_1355_15683)">
<path d="M117 146H133" stroke="black" stroke-width="6.8" stroke-linecap="round" shape-rendering="crispEdges"/>
</g>
<g filter="url(#filter8_d_1355_15683)">
<path d="M165 126V118" stroke="black" stroke-width="6.8" stroke-linecap="round" shape-rendering="crispEdges"/>
</g>
<g filter="url(#filter9_d_1355_15683)">
<path d="M85 126V118" stroke="black" stroke-width="6.8" stroke-linecap="round" shape-rendering="crispEdges"/>
</g>
<path fill-rule="evenodd" clip-rule="evenodd" d="M253 129C253 117.954 244.046 109 233 109C221.954 109 213 117.954 213 129C213 138.982 220.314 147.257 229.875 148.757V134.781H224.797V129H229.875V124.594C229.875 119.581 232.861 116.812 237.429 116.812C239.618 116.812 241.906 117.203 241.906 117.203V122.125H239.384C236.9 122.125 236.125 123.667 236.125 125.248V129H241.672L240.785 134.781H236.125V148.757C245.686 147.257 253 138.982 253 129Z" fill="black"/>
<path d="M136.502 8H142.636L129.236 23.3154L145 44.1563H132.655L122.987 31.5164L111.925 44.1563H105.788L120.121 27.7747L105 8H117.655L126.393 19.5533L136.499 8H136.502ZM134.35 40.4851H137.748L115.81 11.4784H112.163L134.35 40.4851Z" fill="black"/>
<path d="M5.16797 129C5.16797 121.536 5.16797 117.804 7.48671 115.485C9.80544 113.167 13.5374 113.167 21.0013 113.167C28.4652 113.167 32.1972 113.167 34.5159 115.485C36.8346 117.804 36.8346 121.536 36.8346 129C36.8346 136.464 36.8346 140.196 34.5159 142.515C32.1972 144.833 28.4652 144.833 21.0013 144.833C13.5374 144.833 9.80544 144.833 7.48671 142.515C5.16797 140.196 5.16797 136.464 5.16797 129Z" stroke="black" stroke-width="2.5" stroke-linejoin="round"/>
<path d="M28.502 129C28.502 133.142 25.1441 136.5 21.002 136.5C16.8598 136.5 13.502 133.142 13.502 129C13.502 124.858 16.8598 121.5 21.002 121.5C25.1441 121.5 28.502 124.858 28.502 129Z" stroke="black" stroke-width="2.5"/>
<path d="M30.1816 119.833L30.1667 119.833" stroke="black" stroke-width="3.33333" stroke-linecap="round" stroke-linejoin="round"/>
<path d="M139.525 221.637C139.525 221.637 135.363 218.375 130.438 218L130 218.887C134.45 219.975 136.488 221.537 138.625 223.45C134.95 221.575 131.313 219.812 124.988 219.812C118.663 219.812 115.025 221.575 111.35 223.45C113.488 221.537 115.913 219.8 119.975 218.887L119.538 218C114.375 218.487 110.45 221.637 110.45 221.637C110.45 221.637 105.8 228.388 105 241.638C109.688 247.05 116.813 247.087 116.813 247.087L118.3 245.1C115.775 244.225 112.913 242.65 110.45 239.812C113.388 242.037 117.838 244.362 125 244.362C132.163 244.362 136.6 242.05 139.55 239.812C137.088 242.65 134.225 244.225 131.7 245.1L133.188 247.087C133.188 247.087 140.313 247.05 145 241.638C144.175 228.388 139.525 221.637 139.525 221.637ZM119.063 238C117.3 238 115.875 236.375 115.875 234.362C115.875 232.35 117.3 230.725 119.063 230.725C120.825 230.725 122.25 232.35 122.25 234.362C122.25 236.375 120.825 238 119.063 238ZM130.887 238C129.125 238 127.7 236.375 127.7 234.362C127.7 232.35 129.125 230.725 130.887 230.725C132.65 230.725 134.075 232.35 134.075 234.362C134.075 236.375 132.638 238 130.887 238Z" fill="black"/>
<path fill-rule="evenodd" clip-rule="evenodd" d="M22.7767 101.533C32.2275 64.4335 61.4335 35.2275 98.5328 25.7767V28.8763C63.094 38.1907 35.1907 66.094 25.8763 101.533H22.7767ZM22.7767 153.533C32.2275 190.632 61.4335 219.838 98.5328 229.289V226.189C63.094 216.875 35.1906 188.972 25.8763 153.533H22.7767ZM223.189 153.533C213.875 188.972 185.972 216.875 150.533 226.189V229.289C187.632 219.838 216.838 190.632 226.289 153.533H223.189ZM226.289 101.533C216.838 64.4335 187.632 35.2275 150.533 25.7767V28.8763C185.972 38.1907 213.875 66.094 223.189 101.533H226.289Z" fill="url(#paint0_linear_1355_15683)"/>
<defs>
<filter id="filter0_d_1355_15683" x="45.9559" y="88.8222" width="158.09" height="147.689" filterUnits="userSpaceOnUse" color-interpolation-filters="sRGB">
<feFlood flood-opacity="0" result="BackgroundImageFix"/>
<feColorMatrix in="SourceAlpha" type="matrix" values="0 0 0 0 0 0 0 0 0 0 0 0 0 0 0 0 0 0 127 0" result="hardAlpha"/>
<feOffset dy="26.6667"/>
<feGaussianBlur stdDeviation="22.2222"/>
<feComposite in2="hardAlpha" operator="out"/>
<feColorMatrix type="matrix" values="0 0 0 0 0.454902 0 0 0 0 0.666667 0 0 0 0 0.611765 0 0 0 0.25 0"/>
<feBlend mode="normal" in2="BackgroundImageFix" result="effect1_dropShadow_1355_15683"/>
<feBlend mode="normal" in="SourceGraphic" in2="effect1_dropShadow_1355_15683" result="shape"/>
</filter>
<filter id="filter1_d_1355_15683" x="77.1552" y="76.8222" width="95.6897" height="107.689" filterUnits="userSpaceOnUse" color-interpolation-filters="sRGB">
<feFlood flood-opacity="0" result="BackgroundImageFix"/>
<feColorMatrix in="SourceAlpha" type="matrix" values="0 0 0 0 0 0 0 0 0 0 0 0 0 0 0 0 0 0 127 0" result="hardAlpha"/>
<feOffset dy="26.6667"/>
<feGaussianBlur stdDeviation="22.2222"/>
<feComposite in2="hardAlpha" operator="out"/>
<feColorMatrix type="matrix" values="0 0 0 0 0.454902 0 0 0 0 0.666667 0 0 0 0 0.611765 0 0 0 0.25 0"/>
<feBlend mode="normal" in2="BackgroundImageFix" result="effect1_dropShadow_1355_15683"/>
<feBlend mode="normal" in="SourceGraphic" in2="effect1_dropShadow_1355_15683" result="shape"/>
</filter>
<filter id="filter2_d_1355_15683" x="111.292" y="104.822" width="105.553" height="119.446" filterUnits="userSpaceOnUse" color-interpolation-filters="sRGB">
<feFlood flood-opacity="0" result="BackgroundImageFix"/>
<feColorMatrix in="SourceAlpha" type="matrix" values="0 0 0 0 0 0 0 0 0 0 0 0 0 0 0 0 0 0 127 0" result="hardAlpha"/>
<feOffset dy="26.6667"/>
<feGaussianBlur stdDeviation="22.2222"/>
<feComposite in2="hardAlpha" operator="out"/>
<feColorMatrix type="matrix" values="0 0 0 0 0.454902 0 0 0 0 0.666667 0 0 0 0 0.611765 0 0 0 0.25 0"/>
<feBlend mode="normal" in2="BackgroundImageFix" result="effect1_dropShadow_1355_15683"/>
<feBlend mode="normal" in="SourceGraphic" in2="effect1_dropShadow_1355_15683" result="shape"/>
</filter>
<filter id="filter3_d_1355_15683" x="33.1552" y="104.822" width="105.553" height="119.446" filterUnits="userSpaceOnUse" color-interpolation-filters="sRGB">
<feFlood flood-opacity="0" result="BackgroundImageFix"/>
<feColorMatrix in="SourceAlpha" type="matrix" values="0 0 0 0 0 0 0 0 0 0 0 0 0 0 0 0 0 0 127 0" result="hardAlpha"/>
<feOffset dy="26.6667"/>
<feGaussianBlur stdDeviation="22.2222"/>
<feComposite in2="hardAlpha" operator="out"/>
<feColorMatrix type="matrix" values="0 0 0 0 0.454902 0 0 0 0 0.666667 0 0 0 0 0.611765 0 0 0 0.25 0"/>
<feBlend mode="normal" in2="BackgroundImageFix" result="effect1_dropShadow_1355_15683"/>
<feBlend mode="normal" in="SourceGraphic" in2="effect1_dropShadow_1355_15683" result="shape"/>
</filter>
<filter id="filter4_d_1355_15683" x="93.1571" y="104.822" width="95.6897" height="103.689" filterUnits="userSpaceOnUse" color-interpolation-filters="sRGB">
<feFlood flood-opacity="0" result="BackgroundImageFix"/>
<feColorMatrix in="SourceAlpha" type="matrix" values="0 0 0 0 0 0 0 0 0 0 0 0 0 0 0 0 0 0 127 0" result="hardAlpha"/>
<feOffset dy="26.6667"/>
<feGaussianBlur stdDeviation="22.2222"/>
<feComposite in2="hardAlpha" operator="out"/>
<feColorMatrix type="matrix" values="0 0 0 0 0.454902 0 0 0 0 0.666667 0 0 0 0 0.611765 0 0 0 0.25 0"/>
<feBlend mode="normal" in2="BackgroundImageFix" result="effect1_dropShadow_1355_15683"/>
<feBlend mode="normal" in="SourceGraphic" in2="effect1_dropShadow_1355_15683" result="shape"/>
</filter>
<filter id="filter5_d_1355_15683" x="61.1571" y="104.822" width="95.6897" height="103.689" filterUnits="userSpaceOnUse" color-interpolation-filters="sRGB">
<feFlood flood-opacity="0" result="BackgroundImageFix"/>
<feColorMatrix in="SourceAlpha" type="matrix" values="0 0 0 0 0 0 0 0 0 0 0 0 0 0 0 0 0 0 127 0" result="hardAlpha"/>
<feOffset dy="26.6667"/>
<feGaussianBlur stdDeviation="22.2222"/>
<feComposite in2="hardAlpha" operator="out"/>
<feColorMatrix type="matrix" values="0 0 0 0 0.454902 0 0 0 0 0.666667 0 0 0 0 0.611765 0 0 0 0.25 0"/>
<feBlend mode="normal" in2="BackgroundImageFix" result="effect1_dropShadow_1355_15683"/>
<feBlend mode="normal" in="SourceGraphic" in2="effect1_dropShadow_1355_15683" result="shape"/>
</filter>
<filter id="filter6_d_1355_15683" x="72.5556" y="64.2222" width="104.889" height="104.889" filterUnits="userSpaceOnUse" color-interpolation-filters="sRGB">
<feFlood flood-opacity="0" result="BackgroundImageFix"/>
<feColorMatrix in="SourceAlpha" type="matrix" values="0 0 0 0 0 0 0 0 0 0 0 0 0 0 0 0 0 0 127 0" result="hardAlpha"/>
<feOffset dy="26.6667"/>
<feGaussianBlur stdDeviation="22.2222"/>
<feComposite in2="hardAlpha" operator="out"/>
<feColorMatrix type="matrix" values="0 0 0 0 0.454902 0 0 0 0 0.666667 0 0 0 0 0.611765 0 0 0 0.25 0"/>
<feBlend mode="normal" in2="BackgroundImageFix" result="effect1_dropShadow_1355_15683"/>
<feBlend mode="normal" in="SourceGraphic" in2="effect1_dropShadow_1355_15683" result="shape"/>
</filter>
<filter id="filter7_d_1355_15683" x="69.1552" y="124.822" width="111.69" height="95.6889" filterUnits="userSpaceOnUse" color-interpolation-filters="sRGB">
<feFlood flood-opacity="0" result="BackgroundImageFix"/>
<feColorMatrix in="SourceAlpha" type="matrix" values="0 0 0 0 0 0 0 0 0 0 0 0 0 0 0 0 0 0 127 0" result="hardAlpha"/>
<feOffset dy="26.6667"/>
<feGaussianBlur stdDeviation="22.2222"/>
<feComposite in2="hardAlpha" operator="out"/>
<feColorMatrix type="matrix" values="0 0 0 0 0.454902 0 0 0 0 0.666667 0 0 0 0 0.611765 0 0 0 0.25 0"/>
<feBlend mode="normal" in2="BackgroundImageFix" result="effect1_dropShadow_1355_15683"/>
<feBlend mode="normal" in="SourceGraphic" in2="effect1_dropShadow_1355_15683" result="shape"/>
</filter>
<filter id="filter8_d_1355_15683" x="117.155" y="96.8222" width="95.6897" height="103.689" filterUnits="userSpaceOnUse" color-interpolation-filters="sRGB">
<feFlood flood-opacity="0" result="BackgroundImageFix"/>
<feColorMatrix in="SourceAlpha" type="matrix" values="0 0 0 0 0 0 0 0 0 0 0 0 0 0 0 0 0 0 127 0" result="hardAlpha"/>
<feOffset dy="26.6667"/>
<feGaussianBlur stdDeviation="22.2222"/>
<feComposite in2="hardAlpha" operator="out"/>
<feColorMatrix type="matrix" values="0 0 0 0 0.454902 0 0 0 0 0.666667 0 0 0 0 0.611765 0 0 0 0.25 0"/>
<feBlend mode="normal" in2="BackgroundImageFix" result="effect1_dropShadow_1355_15683"/>
<feBlend mode="normal" in="SourceGraphic" in2="effect1_dropShadow_1355_15683" result="shape"/>
</filter>
<filter id="filter9_d_1355_15683" x="37.1552" y="96.8222" width="95.6897" height="103.689" filterUnits="userSpaceOnUse" color-interpolation-filters="sRGB">
<feFlood flood-opacity="0" result="BackgroundImageFix"/>
<feColorMatrix in="SourceAlpha" type="matrix" values="0 0 0 0 0 0 0 0 0 0 0 0 0 0 0 0 0 0 127 0" result="hardAlpha"/>
<feOffset dy="26.6667"/>
<feGaussianBlur stdDeviation="22.2222"/>
<feComposite in2="hardAlpha" operator="out"/>
<feColorMatrix type="matrix" values="0 0 0 0 0.454902 0 0 0 0 0.666667 0 0 0 0 0.611765 0 0 0 0.25 0"/>
<feBlend mode="normal" in2="BackgroundImageFix" result="effect1_dropShadow_1355_15683"/>
<feBlend mode="normal" in="SourceGraphic" in2="effect1_dropShadow_1355_15683" result="shape"/>
</filter>
<linearGradient id="paint0_linear_1355_15683" x1="124.533" y1="26" x2="124.533" y2="229.066" gradientUnits="userSpaceOnUse">
<stop stop-color="#0C74F1"/>
<stop offset="0.9999" stop-color="#28EDDB"/>
<stop offset="1" stop-opacity="0"/>
</linearGradient>
</defs>
</svg>
