<svg width="100" height="73" viewBox="0 0 100 73" fill="none" xmlns="http://www.w3.org/2000/svg">
<path d="M86.3125 9.27813C86.3125 9.27813 75.9063 1.12189 63.5938 0.184387L62.5 2.40313C73.625 5.12188 78.7188 9.02813 84.0625 13.8094C74.875 9.12188 65.7813 4.71564 49.9688 4.71564C34.1563 4.71564 25.0625 9.12188 15.875 13.8094C21.2188 9.02813 27.2813 4.68438 37.4375 2.40313L36.3438 0.184387C23.4375 1.40314 13.625 9.27813 13.625 9.27813C13.625 9.27813 2 26.1531 0 59.2781C11.7188 72.8094 29.5313 72.9031 29.5313 72.9031L33.25 67.9344C26.9375 65.7469 19.7813 61.8094 13.625 54.7156C20.9688 60.2781 32.0938 66.0906 50 66.0906C67.9063 66.0906 79 60.3094 86.375 54.7156C80.2188 61.8094 73.0625 65.7469 66.75 67.9344L70.4688 72.9031C70.4688 72.9031 88.2813 72.8094 100 59.2781C97.9375 26.1531 86.3125 9.27813 86.3125 9.27813ZM35.1563 50.1844C30.75 50.1844 27.1875 46.1219 27.1875 41.0906C27.1875 36.0594 30.75 31.9969 35.1563 31.9969C39.5625 31.9969 43.125 36.0594 43.125 41.0906C43.125 46.1219 39.5625 50.1844 35.1563 50.1844ZM64.7187 50.1844C60.3125 50.1844 56.75 46.1219 56.75 41.0906C56.75 36.0594 60.3125 31.9969 64.7187 31.9969C69.125 31.9969 72.6875 36.0594 72.6875 41.0906C72.6875 46.1219 69.0937 50.1844 64.7187 50.1844Z" fill="#8C9EFF"/>
</svg>
