<svg width="108" height="108" viewBox="0 0 108 108" fill="none" xmlns="http://www.w3.org/2000/svg">
<g filter="url(#filter0_d_1371_1707)">
<path fill-rule="evenodd" clip-rule="evenodd" d="M104 50.1822C104 22.568 81.6142 0.182312 54 0.182312C26.3857 0.182312 4 22.568 4 50.1822C4 75.1384 22.2843 95.8237 46.1875 99.5746V64.6355H33.4922V50.1822H46.1875V39.1666C46.1875 26.6354 53.6521 19.7135 65.0733 19.7135C70.5438 19.7135 76.2658 20.6901 76.2658 20.6901V32.9947H69.9608C63.7496 32.9947 61.8125 36.8489 61.8125 40.803V50.1822H75.6796L73.4629 64.6355H61.8125V99.5746C85.7158 95.8237 104 75.1384 104 50.1822Z" fill="#0866FF"/>
</g>
<defs>
<filter id="filter0_d_1371_1707" x="0" y="0.182312" width="108" height="107.392" filterUnits="userSpaceOnUse" color-interpolation-filters="sRGB">
<feFlood flood-opacity="0" result="BackgroundImageFix"/>
<feColorMatrix in="SourceAlpha" type="matrix" values="0 0 0 0 0 0 0 0 0 0 0 0 0 0 0 0 0 0 127 0" result="hardAlpha"/>
<feOffset dy="4"/>
<feGaussianBlur stdDeviation="2"/>
<feComposite in2="hardAlpha" operator="out"/>
<feColorMatrix type="matrix" values="0 0 0 0 0 0 0 0 0 0 0 0 0 0 0 0 0 0 0.25 0"/>
<feBlend mode="normal" in2="BackgroundImageFix" result="effect1_dropShadow_1371_1707"/>
<feBlend mode="normal" in="SourceGraphic" in2="effect1_dropShadow_1371_1707" result="shape"/>
</filter>
</defs>
</svg>
