<svg width="100" height="100" viewBox="0 0 100 100" fill="none" xmlns="http://www.w3.org/2000/svg">
<path d="M10.418 50C10.418 31.3403 10.418 22.0104 16.2148 16.2135C22.0117 10.4167 31.3415 10.4167 50.0013 10.4167C68.6611 10.4167 77.9909 10.4167 83.7878 16.2135C89.5846 22.0104 89.5846 31.3403 89.5846 50C89.5846 68.6598 89.5846 77.9897 83.7878 83.7865C77.9909 89.5834 68.6611 89.5834 50.0013 89.5834C31.3415 89.5834 22.0117 89.5834 16.2148 83.7865C10.418 77.9897 10.418 68.6598 10.418 50Z" stroke="#B932A9" stroke-width="6.25" stroke-linejoin="round"/>
<path d="M68.752 50.0001C68.752 60.3554 60.3573 68.7501 50.002 68.7501C39.6466 68.7501 31.252 60.3554 31.252 50.0001C31.252 39.6447 39.6466 31.2501 50.002 31.2501C60.3573 31.2501 68.752 39.6447 68.752 50.0001Z" stroke="#B932A9" stroke-width="6.25"/>
<path d="M72.9512 27.0834L72.9137 27.0834" stroke="#B932A9" stroke-width="8.33333" stroke-linecap="round" stroke-linejoin="round"/>
</svg>
