<svg width="162" height="26" viewBox="0 0 162 26" fill="none" xmlns="http://www.w3.org/2000/svg">
<path d="M21.5438 5.5065H28.9028V25.9081H21.5438V16.9897H7.35901V25.9081H0V5.5065H7.35901V12.9677H21.5438V5.5065Z" fill="black"/>
<path d="M6.67249 14.6658H22.2285V21.4885H6.67249V14.6658Z" fill="black"/>
<path d="M5.861 1.00467C5.861 0.500504 6.2799 0.0917969 6.79664 0.0917969H22.7024C23.2192 0.0917969 23.6381 0.500504 23.6381 1.00467V6.71013C23.6381 7.2143 23.2192 7.62301 22.7024 7.62301H6.79663C6.2799 7.62301 5.861 7.2143 5.861 6.71013V1.00467Z" fill="black"/>
<path d="M32.8792 19.502V9.51747H36.2849V18.6873C36.2849 19.4009 36.4651 20.0505 36.8253 20.6363C37.1855 21.222 37.6658 21.6906 38.2662 22.0421C38.8665 22.3829 39.5269 22.5533 40.2474 22.5533C40.9787 22.5533 41.6391 22.3829 42.2286 22.0421C42.8289 21.6906 43.3038 21.222 43.6531 20.6363C44.0133 20.0505 44.1934 19.4009 44.1934 18.6873V9.51747H47.5991L47.6155 25.4928H44.2098L44.1934 23.7674C43.6367 24.4277 42.9436 24.9496 42.114 25.333C41.2844 25.7164 40.3947 25.9081 39.4451 25.9081C38.2334 25.9081 37.1309 25.6206 36.1376 25.0455C35.1442 24.4703 34.3529 23.6982 33.7634 22.729C33.174 21.7599 32.8792 20.6842 32.8792 19.502Z" fill="black"/>
<path d="M63.4304 1.52982H66.8361V25.4928H63.4304V23.1444C62.8955 23.9751 62.1969 24.6461 61.3345 25.1573C60.4722 25.6578 59.4625 25.9081 58.3054 25.9081C57.1156 25.9081 56.0022 25.6898 54.9652 25.2531C53.9282 24.8165 53.0113 24.2147 52.2144 23.4479C51.4285 22.6705 50.8118 21.7758 50.3642 20.7641C49.9167 19.7523 49.6929 18.666 49.6929 17.5051C49.6929 16.3442 49.9167 15.2579 50.3642 14.2462C50.8118 13.2237 51.4285 12.3291 52.2144 11.5623C53.0113 10.7848 53.9282 10.1778 54.9652 9.74113C56.0022 9.30447 57.1156 9.08614 58.3054 9.08614C59.4625 9.08614 60.4722 9.34174 61.3345 9.85295C62.1969 10.3535 62.8955 11.0138 63.4304 11.8339V1.52982ZM58.3382 22.6971C59.2988 22.6971 60.1393 22.4681 60.8597 22.0102C61.5801 21.5415 62.1369 20.9132 62.5298 20.1251C62.9337 19.337 63.1356 18.4636 63.1356 17.5051C63.1356 16.536 62.9337 15.6573 62.5298 14.8692C62.1259 14.0811 61.5638 13.458 60.8433 13.0001C60.1338 12.5315 59.2988 12.2972 58.3382 12.2972C57.3885 12.2972 56.5207 12.5315 55.7348 13.0001C54.9597 13.4687 54.3375 14.0971 53.8682 14.8852C53.4097 15.6733 53.1805 16.5466 53.1805 17.5051C53.1805 18.4743 53.4152 19.3529 53.8845 20.141C54.3648 20.9185 54.9925 21.5415 55.7675 22.0102C56.5534 22.4681 57.4103 22.6971 58.3382 22.6971Z" fill="black"/>
<path d="M83.2734 9.51747H86.6791V25.4928H83.257L83.126 23.1763C82.6458 23.9964 81.9963 24.6567 81.1776 25.1573C80.3589 25.6578 79.3929 25.9081 78.2794 25.9081C77.0787 25.9081 75.9489 25.6898 74.8901 25.2531C73.8313 24.8058 72.898 24.1881 72.0902 23.4C71.2934 22.6119 70.6712 21.7066 70.2236 20.6842C69.7761 19.6511 69.5523 18.5435 69.5523 17.3613C69.5523 16.2218 69.7706 15.1514 70.2073 14.1503C70.6439 13.1385 71.2497 12.2546 72.0247 11.4984C72.7997 10.7422 73.6948 10.1512 74.71 9.72515C75.7361 9.28849 76.8331 9.07017 78.0011 9.07017C79.1909 9.07017 80.2388 9.33642 81.1448 9.86893C82.0618 10.3908 82.8204 11.0618 83.4208 11.8818L83.2734 9.51747ZM78.1976 22.6971C79.1582 22.6971 79.9987 22.4681 80.7191 22.0102C81.4396 21.5415 81.9963 20.9132 82.3892 20.1251C82.7931 19.337 82.9951 18.4636 82.9951 17.5051C82.9951 16.536 82.7931 15.6573 82.3892 14.8692C81.9853 14.0811 81.4232 13.458 80.7028 13.0001C79.9932 12.5315 79.1582 12.2972 78.1976 12.2972C77.2479 12.2972 76.3801 12.5315 75.5942 13.0001C74.8082 13.4687 74.186 14.0971 73.7276 14.8852C73.2691 15.6733 73.0399 16.5466 73.0399 17.5051C73.0399 18.4743 73.2746 19.3529 73.744 20.141C74.2243 20.9185 74.8519 21.5415 75.6269 22.0102C76.4129 22.4681 77.2697 22.6971 78.1976 22.6971Z" fill="black"/>
<path d="M89.0037 25.4928L94.9964 17.4732L89.0364 9.48552H93.2444L97.0922 14.6296L100.956 9.48552H105.148L99.2044 17.4732L105.197 25.4928H100.989L97.0922 20.2848L93.2117 25.4928H89.0037Z" fill="black"/>
<path d="M107.855 9.51747H111.261V25.4928H107.855V9.51747ZM109.591 7.20105C109.067 7.20105 108.63 7.03598 108.281 6.70582C107.931 6.37567 107.757 5.96031 107.757 5.45975C107.757 4.96984 107.931 4.55981 108.281 4.22965C108.63 3.88884 109.061 3.71844 109.574 3.71844C110.076 3.71844 110.502 3.88884 110.851 4.22965C111.201 4.55981 111.375 4.96984 111.375 5.45975C111.375 5.96031 111.201 6.37567 110.851 6.70582C110.513 7.03598 110.093 7.20105 109.591 7.20105Z" fill="black"/>
<path d="M122.095 25.9081C120.589 25.9081 119.213 25.53 117.969 24.7739C116.735 24.0177 115.748 23.0059 115.005 21.7386C114.274 20.4605 113.908 19.0494 113.908 17.5051C113.908 16.3336 114.121 15.242 114.547 14.2302C114.972 13.2078 115.556 12.3131 116.299 11.5463C117.052 10.7689 117.925 10.1618 118.919 9.72515C119.912 9.28849 120.971 9.07017 122.095 9.07017C123.601 9.07017 124.971 9.44825 126.205 10.2044C127.449 10.9606 128.437 11.9777 129.168 13.2557C129.911 14.5337 130.282 15.9502 130.282 17.5051C130.282 18.666 130.069 19.7523 129.643 20.7641C129.218 21.7758 128.628 22.6705 127.875 23.4479C127.133 24.2147 126.265 24.8165 125.271 25.2531C124.289 25.6898 123.23 25.9081 122.095 25.9081ZM122.095 22.5853C123.001 22.5853 123.814 22.351 124.535 21.8824C125.255 21.4137 125.823 20.796 126.238 20.0292C126.663 19.2518 126.876 18.4104 126.876 17.5051C126.876 16.5786 126.658 15.7265 126.221 14.9491C125.795 14.1716 125.222 13.5539 124.502 13.0959C123.781 12.6273 122.979 12.393 122.095 12.393C121.2 12.393 120.387 12.6273 119.655 13.0959C118.935 13.5645 118.362 14.1876 117.936 14.965C117.521 15.7425 117.314 16.5892 117.314 17.5051C117.314 18.453 117.532 19.3103 117.969 20.0771C118.405 20.844 118.984 21.4563 119.704 21.9143C120.436 22.3616 121.233 22.5853 122.095 22.5853Z" fill="black"/>
<path d="M131.952 19.502V9.51747H135.358V18.6873C135.358 19.4009 135.538 20.0505 135.898 20.6363C136.259 21.222 136.739 21.6906 137.339 22.0421C137.94 22.3829 138.6 22.5533 139.321 22.5533C140.052 22.5533 140.712 22.3829 141.302 22.0421C141.902 21.6906 142.377 21.222 142.726 20.6363C143.087 20.0505 143.267 19.4009 143.267 18.6873V9.51747H146.672L146.689 25.4928H143.283L143.267 23.7674C142.71 24.4277 142.017 24.9496 141.187 25.333C140.358 25.7164 139.468 25.9081 138.518 25.9081C137.307 25.9081 136.204 25.6206 135.211 25.0455C134.217 24.4703 133.426 23.6982 132.837 22.729C132.247 21.7599 131.952 20.6842 131.952 19.502Z" fill="black"/>
<path d="M154.884 25.7963C154.022 25.743 153.182 25.5726 152.363 25.2851C151.544 24.9975 150.824 24.6088 150.202 24.1189C149.59 23.6183 149.132 23.0326 148.826 22.3616L151.724 21.1475C151.866 21.435 152.112 21.7173 152.461 21.9942C152.821 22.2711 153.242 22.5001 153.722 22.6811C154.202 22.8515 154.704 22.9367 155.228 22.9367C155.741 22.9367 156.216 22.8675 156.653 22.729C157.1 22.5799 157.466 22.3563 157.75 22.0581C158.034 21.7599 158.176 21.4031 158.176 20.9877C158.176 20.5191 158.012 20.157 157.684 19.9014C157.368 19.6352 156.969 19.4328 156.489 19.2944C156.009 19.1559 155.528 19.0228 155.048 18.895C153.978 18.6607 152.996 18.3412 152.101 17.9365C151.217 17.5211 150.513 16.9939 149.989 16.3549C149.465 15.7052 149.203 14.9118 149.203 13.9746C149.203 12.9522 149.487 12.0682 150.054 11.3227C150.622 10.5665 151.364 9.98608 152.281 9.58137C153.209 9.17667 154.197 8.97431 155.245 8.97431C156.555 8.97431 157.755 9.24589 158.847 9.78905C159.938 10.3322 160.774 11.0777 161.352 12.0256L158.65 13.5912C158.487 13.2717 158.241 12.9841 157.914 12.7285C157.586 12.4729 157.215 12.2705 156.8 12.1214C156.385 11.9617 155.954 11.8712 155.507 11.8499C154.95 11.8286 154.431 11.8925 153.951 12.0416C153.482 12.18 153.105 12.4037 152.821 12.7125C152.538 13.0214 152.396 13.4154 152.396 13.8947C152.396 14.3633 152.565 14.7148 152.903 14.9491C153.242 15.1727 153.667 15.3538 154.18 15.4922C154.704 15.6307 155.239 15.7851 155.785 15.9555C156.757 16.2537 157.668 16.6212 158.519 17.0578C159.371 17.4838 160.059 18.011 160.582 18.6394C161.106 19.2677 161.358 20.0345 161.336 20.9398C161.336 21.9409 161.025 22.8196 160.402 23.5757C159.791 24.3319 158.994 24.907 158.012 25.3011C157.029 25.6951 155.987 25.8602 154.884 25.7963Z" fill="black"/>
</svg>
