<svg width="64" height="64" viewBox="0 0 64 64" fill="none" xmlns="http://www.w3.org/2000/svg">
<g clip-path="url(#clip0_1360_1701)">
<path d="M47.4078 0.927128C46.5886 1.00027 45.7978 1.38793 45.2254 2.07364L21.7777 30.144L21.3369 38.9047L29.475 45.7034L38.0172 43.712L61.4667 15.6389C62.6105 14.2711 62.4277 12.2496 61.0599 11.1059L49.7603 1.66678C49.0755 1.09535 48.2279 0.854899 47.4078 0.927128ZM46.6353 3.71387L48.0935 4.93261L25.4028 32.0988L23.9445 30.88L46.6353 3.71387ZM9.7173 5.44369C5.88827 5.44369 2.74219 8.58884 2.74219 12.4188V54.945C2.74219 58.7712 5.88827 61.9173 9.7173 61.9173H52.2425C56.0716 61.9173 59.2194 58.7712 59.2194 54.945V25.5717L55.0247 30.3324V54.945C55.0247 56.5212 53.8197 57.7216 52.2425 57.7216H9.7173C8.14016 57.7216 6.93783 56.5212 6.93783 54.945V12.4188C6.93783 10.8426 8.14016 9.63844 9.7173 9.63844H32.4227L36.1548 5.44369H9.7173ZM49.1952 5.85604L50.1507 6.6533L27.4599 33.8167L26.5045 33.0195L49.1952 5.85604ZM21.2346 40.9335L20.8944 47.7038L27.4965 46.1632L21.2346 40.9335Z" fill="black"/>
</g>
<defs>
<clipPath id="clip0_1360_1701">
<rect width="59.477" height="61.6027" fill="black" transform="translate(2.74219 0.914276)"/>
</clipPath>
</defs>
</svg>
